<svg width="50" height="50" viewBox="0 0 50 50" fill="none" xmlns="http://www.w3.org/2000/svg">
<path d="M45.8334 6.25H4.16669V18.75H6.25002V41.6667C6.25002 42.7717 6.68901 43.8315 7.47041 44.6129C8.25181 45.3943 9.31162 45.8333 10.4167 45.8333H39.5834C40.6884 45.8333 41.7482 45.3943 42.5296 44.6129C43.311 43.8315 43.75 42.7717 43.75 41.6667V18.75H45.8334V6.25ZM8.33335 10.4167H41.6667V14.5833H8.33335V10.4167ZM39.5834 41.6667H10.4167V18.75H39.5834V41.6667ZM18.75 22.9167H31.25C31.25 24.0217 30.811 25.0815 30.0296 25.8629C29.2482 26.6443 28.1884 27.0833 27.0834 27.0833H22.9167C21.8116 27.0833 20.7518 26.6443 19.9704 25.8629C19.189 25.0815 18.75 24.0217 18.75 22.9167Z" fill="black"/>
</svg>
