<svg width="20" height="20" viewBox="0 0 20 20" fill="none" xmlns="http://www.w3.org/2000/svg">
<g clip-path="url(#clip0_214_3232)">
<path fill-rule="evenodd" clip-rule="evenodd" d="M5.49417 13.9533C5.55696 14.043 5.60146 14.1441 5.62514 14.251C5.64882 14.3579 5.65121 14.4684 5.63217 14.5762C5.61313 14.684 5.57304 14.787 5.51419 14.8793C5.45533 14.9716 5.37887 15.0514 5.28917 15.1141C5.18706 15.1798 5.09712 15.2627 5.02334 15.3591L5.00334 15.3941L5.0325 15.4425C5.0575 15.4758 5.0975 15.5216 5.16584 15.58C5.3575 15.7433 5.6825 15.9275 6.1575 16.0991C7.1025 16.44 8.46084 16.6666 10 16.6666C11.54 16.6666 12.8983 16.44 13.8417 16.1C14.3167 15.9275 14.6425 15.7433 14.8333 15.58C14.8834 15.5399 14.9282 15.4937 14.9667 15.4425L14.9967 15.3941L14.9767 15.3608C14.9043 15.2648 14.8157 15.1822 14.715 15.1166C14.6228 15.0548 14.544 14.9751 14.483 14.8824C14.4221 14.7896 14.3803 14.6856 14.36 14.5765C14.3398 14.4673 14.3416 14.3553 14.3653 14.2468C14.389 14.1384 14.4341 14.0358 14.498 13.945C14.5619 13.8543 14.6433 13.7772 14.7374 13.7183C14.8315 13.6594 14.9364 13.6199 15.0459 13.6021C15.1555 13.5844 15.2675 13.5887 15.3754 13.6147C15.4833 13.6408 15.5849 13.6882 15.6742 13.7541C16.1725 14.105 16.6667 14.6491 16.6667 15.3941C16.6667 16.0216 16.3117 16.51 15.9167 16.8475C15.5167 17.1891 14.9883 17.4575 14.4083 17.6675C13.24 18.0883 11.6817 18.3333 10 18.3333C8.31834 18.3333 6.76 18.0883 5.59167 17.6666C5.01167 17.4583 4.48334 17.1883 4.08417 16.8475C3.68834 16.51 3.33334 16.0225 3.33334 15.3941C3.33334 14.6458 3.83167 14.1 4.33334 13.7483C4.42301 13.6855 4.52417 13.641 4.63105 13.6173C4.73793 13.5936 4.84842 13.5913 4.95622 13.6103C5.06402 13.6293 5.16702 13.6694 5.25932 13.7283C5.35162 13.7871 5.43143 13.8636 5.49417 13.9533ZM10 1.66663C11.7681 1.66663 13.4638 2.369 14.714 3.61925C15.9643 4.86949 16.6667 6.56518 16.6667 8.33329C16.6667 10.1014 15.9643 11.7971 14.714 13.0473C13.4638 14.2976 11.7681 15 10 15C8.23189 15 6.5362 14.2976 5.28596 13.0473C4.03571 11.7971 3.33334 10.1014 3.33334 8.33329C3.33334 6.56518 4.03571 4.86949 5.28596 3.61925C6.5362 2.369 8.23189 1.66663 10 1.66663ZM10 3.33329C8.67392 3.33329 7.40215 3.86008 6.46447 4.79776C5.52679 5.73544 5 7.00721 5 8.33329C5 9.65937 5.52679 10.9311 6.46447 11.8688C7.40215 12.8065 8.67392 13.3333 10 13.3333C11.3261 13.3333 12.5979 12.8065 13.5355 11.8688C14.4732 10.9311 15 9.65937 15 8.33329C15 7.00721 14.4732 5.73544 13.5355 4.79776C12.5979 3.86008 11.3261 3.33329 10 3.33329ZM10 4.99996C10.8841 4.99996 11.7319 5.35115 12.357 5.97627C12.9821 6.60139 13.3333 7.44924 13.3333 8.33329C13.3333 9.21735 12.9821 10.0652 12.357 10.6903C11.7319 11.3154 10.8841 11.6666 10 11.6666C9.11595 11.6666 8.2681 11.3154 7.64298 10.6903C7.01786 10.0652 6.66667 9.21735 6.66667 8.33329C6.66667 7.44924 7.01786 6.60139 7.64298 5.97627C8.2681 5.35115 9.11595 4.99996 10 4.99996ZM10 6.66663C9.55797 6.66663 9.13405 6.84222 8.82149 7.15478C8.50893 7.46734 8.33334 7.89127 8.33334 8.33329C8.33334 8.77532 8.50893 9.19924 8.82149 9.5118C9.13405 9.82436 9.55797 9.99996 10 9.99996C10.442 9.99996 10.866 9.82436 11.1785 9.5118C11.4911 9.19924 11.6667 8.77532 11.6667 8.33329C11.6667 7.89127 11.4911 7.46734 11.1785 7.15478C10.866 6.84222 10.442 6.66663 10 6.66663Z" fill="white"/>
</g>
<defs>
<clipPath id="clip0_214_3232">
<rect width="20" height="20" fill="white"/>
</clipPath>
</defs>
</svg>
