<svg width="57" height="57" viewBox="0 0 57 57" fill="none" xmlns="http://www.w3.org/2000/svg">
<circle cx="28.5" cy="28.5" r="28.5" fill="white"/>
<g clip-path="url(#clip0_903_1177)">
<path d="M34.9375 10.0371L48 16.5684V31.1338L45.625 29.9463V19.2217L36.125 23.9717V28.7588L33.75 29.9463V23.9717L24.25 19.2217V23.4336L21.875 22.2461V16.5684L34.9375 10.0371ZM34.9375 21.9121L38.2217 20.2607L29.6309 15.3438L25.7158 17.3105L34.9375 21.9121ZM40.7822 18.999L44.1592 17.3105L34.9375 12.6904L32.1729 14.082L40.7822 18.999ZM31.375 31.1338L29 32.3213V32.3027L21.875 35.8652V44.3076L29 40.7266V43.3984L20.6875 47.5547L10 42.1924V29.6494L20.6875 24.3057L31.375 29.6494V31.1338ZM19.5 44.3076V35.8652L12.375 32.3027V40.7266L19.5 44.3076ZM20.6875 33.8057L27.5342 30.3916L20.6875 26.959L13.8408 30.3916L20.6875 33.8057ZM31.375 33.7871L39.6875 29.6309L48 33.7871V43.5654L39.6875 47.7217L31.375 43.5654V33.7871ZM38.5 44.4746V38.8154L33.75 36.4404V42.0996L38.5 44.4746ZM45.625 42.0996V36.4404L40.875 38.8154V44.4746L45.625 42.0996ZM39.6875 36.7559L44.1592 34.5107L39.6875 32.2842L35.2158 34.5107L39.6875 36.7559Z" fill="#5A5B6A"/>
</g>
<defs>
<clipPath id="clip0_903_1177">
<rect width="38" height="38" fill="white" transform="translate(10 10)"/>
</clipPath>
</defs>
</svg>
