<svg width="87" height="60" viewBox="0 0 87 60" fill="none" xmlns="http://www.w3.org/2000/svg">
<mask id="path-1-inside-1_214_3524" fill="white">
<path fill-rule="evenodd" clip-rule="evenodd" d="M4.80247 15C4.91001 15 5.01673 14.9945 5.12251 14.9836V15H81.6419H81.962V14.9836C84.4651 14.7264 86.4444 11.4742 86.4444 7.5C86.4444 3.52582 84.4651 0.273606 81.962 0.0163916V0H81.6419H5.12251V0.0163897C5.01673 0.00552043 4.91001 0 4.80247 0C2.15014 0 0 3.35786 0 7.5C0 11.6421 2.15014 15 4.80247 15Z"/>
</mask>
<path fill-rule="evenodd" clip-rule="evenodd" d="M4.80247 15C4.91001 15 5.01673 14.9945 5.12251 14.9836V15H81.6419H81.962V14.9836C84.4651 14.7264 86.4444 11.4742 86.4444 7.5C86.4444 3.52582 84.4651 0.273606 81.962 0.0163916V0H81.6419H5.12251V0.0163897C5.01673 0.00552043 4.91001 0 4.80247 0C2.15014 0 0 3.35786 0 7.5C0 11.6421 2.15014 15 4.80247 15Z" fill="#D9D9D9"/>
<path d="M5.12251 14.9836H6.12251V13.8756L5.0203 13.9888L5.12251 14.9836ZM5.12251 15H4.12251V16H5.12251V15ZM81.962 15V16H82.962V15H81.962ZM81.962 14.9836L81.8598 13.9888L80.962 14.0811V14.9836H81.962ZM81.962 0.0163916H80.962V0.918899L81.8598 1.01115L81.962 0.0163916ZM81.962 0H82.962V-1H81.962V0ZM5.12251 0V-1H4.12251V0H5.12251ZM5.12251 0.0163897L5.0203 1.01115L6.12251 1.12441V0.0163897H5.12251ZM5.0203 13.9888C4.94834 13.9962 4.87574 14 4.80247 14V16C4.94428 16 5.08512 15.9927 5.22472 15.9784L5.0203 13.9888ZM6.12251 15V14.9836H4.12251V15H6.12251ZM81.6419 14H5.12251V16H81.6419V14ZM81.962 14H81.6419V16H81.962V14ZM80.962 14.9836V15H82.962V14.9836H80.962ZM85.4444 7.5C85.4444 9.33044 84.987 10.9539 84.2851 12.12C83.5752 13.2995 82.6922 13.9033 81.8598 13.9888L82.0642 15.9784C83.7349 15.8067 85.0931 14.6558 85.9987 13.1513C86.9122 11.6335 87.4444 9.64373 87.4444 7.5H85.4444ZM81.8598 1.01115C82.6922 1.09669 83.5752 1.70053 84.2851 2.88002C84.987 4.04614 85.4444 5.66956 85.4444 7.5H87.4444C87.4444 5.35627 86.9122 3.36648 85.9987 1.84865C85.0931 0.344187 83.7349 -0.806696 82.0642 -0.97837L81.8598 1.01115ZM80.962 0V0.0163916H82.962V0H80.962ZM81.6419 1H81.962V-1H81.6419V1ZM5.12251 1H81.6419V-1H5.12251V1ZM6.12251 0.0163897V0H4.12251V0.0163897H6.12251ZM4.80247 1C4.87574 1 4.94834 1.00376 5.0203 1.01115L5.22472 -0.978373C5.08512 -0.992718 4.94428 -1 4.80247 -1V1ZM1 7.5C1 5.59092 1.49742 3.90931 2.24876 2.73595C3.00722 1.55145 3.9338 1 4.80247 1V-1C3.0188 -1 1.54415 0.127479 0.564465 1.65745C-0.422352 3.19856 -1 5.26694 -1 7.5H1ZM4.80247 14C3.9338 14 3.00722 13.4485 2.24876 12.2641C1.49742 11.0907 1 9.40908 1 7.5H-1C-1 9.73306 -0.422352 11.8014 0.564465 13.3426C1.54415 14.8725 3.0188 16 4.80247 16V14Z" fill="#B4B4BB" mask="url(#path-1-inside-1_214_3524)"/>
<mask id="path-3-inside-2_214_3524" fill="white">
<path fill-rule="evenodd" clip-rule="evenodd" d="M4.80247 30C4.91001 30 5.01673 29.9945 5.12251 29.9836V30H81.6419H81.962V29.9836C84.4651 29.7264 86.4444 26.4742 86.4444 22.5C86.4444 18.5258 84.4651 15.2736 81.962 15.0164V15H81.6419H5.12251V15.0164C5.01673 15.0055 4.91001 15 4.80247 15C2.15014 15 0 18.3579 0 22.5C0 26.6421 2.15014 30 4.80247 30Z"/>
</mask>
<path fill-rule="evenodd" clip-rule="evenodd" d="M4.80247 30C4.91001 30 5.01673 29.9945 5.12251 29.9836V30H81.6419H81.962V29.9836C84.4651 29.7264 86.4444 26.4742 86.4444 22.5C86.4444 18.5258 84.4651 15.2736 81.962 15.0164V15H81.6419H5.12251V15.0164C5.01673 15.0055 4.91001 15 4.80247 15C2.15014 15 0 18.3579 0 22.5C0 26.6421 2.15014 30 4.80247 30Z" fill="#D9D9D9"/>
<path d="M5.12251 29.9836H6.12251V28.8756L5.0203 28.9888L5.12251 29.9836ZM5.12251 30H4.12251V31H5.12251V30ZM81.962 30V31H82.962V30H81.962ZM81.962 29.9836L81.8598 28.9888L80.962 29.0811V29.9836H81.962ZM81.962 15.0164H80.962V15.9189L81.8598 16.0112L81.962 15.0164ZM81.962 15H82.962V14H81.962V15ZM5.12251 15V14H4.12251V15H5.12251ZM5.12251 15.0164L5.0203 16.0112L6.12251 16.1244V15.0164H5.12251ZM5.0203 28.9888C4.94834 28.9962 4.87574 29 4.80247 29V31C4.94428 31 5.08512 30.9927 5.22472 30.9784L5.0203 28.9888ZM6.12251 30V29.9836H4.12251V30H6.12251ZM81.6419 29H5.12251V31H81.6419V29ZM81.962 29H81.6419V31H81.962V29ZM80.962 29.9836V30H82.962V29.9836H80.962ZM85.4444 22.5C85.4444 24.3304 84.987 25.9539 84.2851 27.12C83.5752 28.2995 82.6922 28.9033 81.8598 28.9888L82.0642 30.9784C83.7349 30.8067 85.0931 29.6558 85.9987 28.1513C86.9122 26.6335 87.4444 24.6437 87.4444 22.5H85.4444ZM81.8598 16.0112C82.6922 16.0967 83.5752 16.7005 84.2851 17.88C84.987 19.0461 85.4444 20.6696 85.4444 22.5H87.4444C87.4444 20.3563 86.9122 18.3665 85.9987 16.8487C85.0931 15.3442 83.7349 14.1933 82.0642 14.0216L81.8598 16.0112ZM80.962 15V15.0164H82.962V15H80.962ZM81.6419 16H81.962V14H81.6419V16ZM5.12251 16H81.6419V14H5.12251V16ZM6.12251 15.0164V15H4.12251V15.0164H6.12251ZM4.80247 16C4.87574 16 4.94834 16.0038 5.0203 16.0112L5.22472 14.0216C5.08512 14.0073 4.94428 14 4.80247 14V16ZM1 22.5C1 20.5909 1.49742 18.9093 2.24876 17.7359C3.00722 16.5515 3.9338 16 4.80247 16V14C3.0188 14 1.54415 15.1275 0.564465 16.6574C-0.422352 18.1986 -1 20.2669 -1 22.5H1ZM4.80247 29C3.9338 29 3.00722 28.4485 2.24876 27.2641C1.49742 26.0907 1 24.4091 1 22.5H-1C-1 24.7331 -0.422352 26.8014 0.564465 28.3426C1.54415 29.8725 3.0188 31 4.80247 31V29Z" fill="#B4B4BB" mask="url(#path-3-inside-2_214_3524)"/>
<mask id="path-5-inside-3_214_3524" fill="white">
<path fill-rule="evenodd" clip-rule="evenodd" d="M4.80247 45C4.91001 45 5.01673 44.9945 5.12251 44.9836V45H81.6419H81.962V44.9836C84.4651 44.7264 86.4444 41.4742 86.4444 37.5C86.4444 33.5258 84.4651 30.2736 81.962 30.0164V30H81.6419H5.12251V30.0164C5.01673 30.0055 4.91001 30 4.80247 30C2.15014 30 0 33.3579 0 37.5C0 41.6421 2.15014 45 4.80247 45Z"/>
</mask>
<path fill-rule="evenodd" clip-rule="evenodd" d="M4.80247 45C4.91001 45 5.01673 44.9945 5.12251 44.9836V45H81.6419H81.962V44.9836C84.4651 44.7264 86.4444 41.4742 86.4444 37.5C86.4444 33.5258 84.4651 30.2736 81.962 30.0164V30H81.6419H5.12251V30.0164C5.01673 30.0055 4.91001 30 4.80247 30C2.15014 30 0 33.3579 0 37.5C0 41.6421 2.15014 45 4.80247 45Z" fill="#D9D9D9"/>
<path d="M5.12251 44.9836H6.12251V43.8756L5.0203 43.9888L5.12251 44.9836ZM5.12251 45H4.12251V46H5.12251V45ZM81.962 45V46H82.962V45H81.962ZM81.962 44.9836L81.8598 43.9888L80.962 44.0811V44.9836H81.962ZM81.962 30.0164H80.962V30.9189L81.8598 31.0112L81.962 30.0164ZM81.962 30H82.962V29H81.962V30ZM5.12251 30V29H4.12251V30H5.12251ZM5.12251 30.0164L5.0203 31.0112L6.12251 31.1244V30.0164H5.12251ZM5.0203 43.9888C4.94834 43.9962 4.87574 44 4.80247 44V46C4.94428 46 5.08512 45.9927 5.22472 45.9784L5.0203 43.9888ZM6.12251 45V44.9836H4.12251V45H6.12251ZM81.6419 44H5.12251V46H81.6419V44ZM81.962 44H81.6419V46H81.962V44ZM80.962 44.9836V45H82.962V44.9836H80.962ZM85.4444 37.5C85.4444 39.3304 84.987 40.9539 84.2851 42.12C83.5752 43.2995 82.6922 43.9033 81.8598 43.9888L82.0642 45.9784C83.7349 45.8067 85.0931 44.6558 85.9987 43.1513C86.9122 41.6335 87.4444 39.6437 87.4444 37.5H85.4444ZM81.8598 31.0112C82.6922 31.0967 83.5752 31.7005 84.2851 32.88C84.987 34.0461 85.4444 35.6696 85.4444 37.5H87.4444C87.4444 35.3563 86.9122 33.3665 85.9987 31.8487C85.0931 30.3442 83.7349 29.1933 82.0642 29.0216L81.8598 31.0112ZM80.962 30V30.0164H82.962V30H80.962ZM81.6419 31H81.962V29H81.6419V31ZM5.12251 31H81.6419V29H5.12251V31ZM6.12251 30.0164V30H4.12251V30.0164H6.12251ZM4.80247 31C4.87574 31 4.94834 31.0038 5.0203 31.0112L5.22472 29.0216C5.08512 29.0073 4.94428 29 4.80247 29V31ZM1 37.5C1 35.5909 1.49742 33.9093 2.24876 32.7359C3.00722 31.5515 3.9338 31 4.80247 31V29C3.0188 29 1.54415 30.1275 0.564465 31.6574C-0.422352 33.1986 -1 35.2669 -1 37.5H1ZM4.80247 44C3.9338 44 3.00722 43.4485 2.24876 42.2641C1.49742 41.0907 1 39.4091 1 37.5H-1C-1 39.7331 -0.422352 41.8014 0.564465 43.3426C1.54415 44.8725 3.0188 46 4.80247 46V44Z" fill="#B4B4BB" mask="url(#path-5-inside-3_214_3524)"/>
<mask id="path-7-inside-4_214_3524" fill="white">
<path fill-rule="evenodd" clip-rule="evenodd" d="M4.80247 60C4.91001 60 5.01673 59.9945 5.12251 59.9836V60H81.6419H81.962V59.9836C84.4651 59.7264 86.4444 56.4742 86.4444 52.5C86.4444 48.5258 84.4651 45.2736 81.962 45.0164V45H81.6419H5.12251V45.0164C5.01673 45.0055 4.91001 45 4.80247 45C2.15014 45 0 48.3579 0 52.5C0 56.6421 2.15014 60 4.80247 60Z"/>
</mask>
<path fill-rule="evenodd" clip-rule="evenodd" d="M4.80247 60C4.91001 60 5.01673 59.9945 5.12251 59.9836V60H81.6419H81.962V59.9836C84.4651 59.7264 86.4444 56.4742 86.4444 52.5C86.4444 48.5258 84.4651 45.2736 81.962 45.0164V45H81.6419H5.12251V45.0164C5.01673 45.0055 4.91001 45 4.80247 45C2.15014 45 0 48.3579 0 52.5C0 56.6421 2.15014 60 4.80247 60Z" fill="#D9D9D9"/>
<path d="M5.12251 59.9836H6.12251V58.8756L5.0203 58.9888L5.12251 59.9836ZM5.12251 60H4.12251V61H5.12251V60ZM81.962 60V61H82.962V60H81.962ZM81.962 59.9836L81.8598 58.9888L80.962 59.0811V59.9836H81.962ZM81.962 45.0164H80.962V45.9189L81.8598 46.0112L81.962 45.0164ZM81.962 45H82.962V44H81.962V45ZM5.12251 45V44H4.12251V45H5.12251ZM5.12251 45.0164L5.0203 46.0112L6.12251 46.1244V45.0164H5.12251ZM5.0203 58.9888C4.94834 58.9962 4.87574 59 4.80247 59V61C4.94428 61 5.08512 60.9927 5.22472 60.9784L5.0203 58.9888ZM6.12251 60V59.9836H4.12251V60H6.12251ZM81.6419 59H5.12251V61H81.6419V59ZM81.962 59H81.6419V61H81.962V59ZM80.962 59.9836V60H82.962V59.9836H80.962ZM85.4444 52.5C85.4444 54.3304 84.987 55.9539 84.2851 57.12C83.5752 58.2995 82.6922 58.9033 81.8598 58.9888L82.0642 60.9784C83.7349 60.8067 85.0931 59.6558 85.9987 58.1513C86.9122 56.6335 87.4444 54.6437 87.4444 52.5H85.4444ZM81.8598 46.0112C82.6922 46.0967 83.5752 46.7005 84.2851 47.88C84.987 49.0461 85.4444 50.6696 85.4444 52.5H87.4444C87.4444 50.3563 86.9122 48.3665 85.9987 46.8487C85.0931 45.3442 83.7349 44.1933 82.0642 44.0216L81.8598 46.0112ZM80.962 45V45.0164H82.962V45H80.962ZM81.6419 46H81.962V44H81.6419V46ZM5.12251 46H81.6419V44H5.12251V46ZM6.12251 45.0164V45H4.12251V45.0164H6.12251ZM4.80247 46C4.87574 46 4.94834 46.0038 5.0203 46.0112L5.22472 44.0216C5.08512 44.0073 4.94428 44 4.80247 44V46ZM1 52.5C1 50.5909 1.49742 48.9093 2.24876 47.7359C3.00722 46.5515 3.9338 46 4.80247 46V44C3.0188 44 1.54415 45.1275 0.564465 46.6574C-0.422352 48.1986 -1 50.2669 -1 52.5H1ZM4.80247 59C3.9338 59 3.00722 58.4485 2.24876 57.2641C1.49742 56.0907 1 54.4091 1 52.5H-1C-1 54.7331 -0.422352 56.8014 0.564465 58.3426C1.54415 59.8725 3.0188 61 4.80247 61V59Z" fill="#B4B4BB" mask="url(#path-7-inside-4_214_3524)"/>
</svg>
