<svg width="16" height="16" viewBox="0 0 16 16" fill="none" xmlns="http://www.w3.org/2000/svg">
<g clip-path="url(#clip0_214_2903)">
<path d="M0 2C0 1.46957 0.203769 0.960859 0.566481 0.585786C0.929193 0.210714 1.42114 0 1.93409 0L13.5386 0C14.0516 0 14.5435 0.210714 14.9062 0.585786C15.2689 0.960859 15.4727 1.46957 15.4727 2V14C15.4727 14.5304 15.2689 15.0391 14.9062 15.4142C14.5435 15.7893 14.0516 16 13.5386 16H1.93409C1.42114 16 0.929193 15.7893 0.566481 15.4142C0.203769 15.0391 0 14.5304 0 14V2ZM14.5057 4H10.6375V7H14.5057V4ZM14.5057 8H10.6375V11H14.5057V8ZM14.5057 12H10.6375V15H13.5386C13.7951 15 14.0411 14.8946 14.2224 14.7071C14.4038 14.5196 14.5057 14.2652 14.5057 14V12ZM9.67044 15V12H5.80227V15H9.67044ZM4.83522 15V12H0.967044V14C0.967044 14.2652 1.06893 14.5196 1.25028 14.7071C1.43164 14.8946 1.67761 15 1.93409 15H4.83522ZM0.967044 11H4.83522V8H0.967044V11ZM0.967044 7H4.83522V4H0.967044V7ZM5.80227 4V7H9.67044V4H5.80227ZM9.67044 8H5.80227V11H9.67044V8Z" fill="#F0F0F1"/>
</g>
<defs>
<clipPath id="clip0_214_2903">
<rect width="15.4727" height="16" fill="white"/>
</clipPath>
</defs>
</svg>
