<svg width="21" height="19" viewBox="0 0 21 19" fill="none" xmlns="http://www.w3.org/2000/svg">
<g clip-path="url(#clip0_214_2348)">
<path d="M1.75406 3.00024H2.62291C3.08378 3.00024 3.52577 3.15828 3.85165 3.43958C4.17754 3.72089 4.36062 4.10242 4.36062 4.50024V12.0002C4.36062 12.3981 4.5437 12.7796 4.86958 13.0609C5.19546 13.3422 5.63745 13.5002 6.09832 13.5002H19.1311" stroke="#F0F0F1" stroke-width="2" stroke-linecap="round" stroke-linejoin="round"/>
<path d="M13.918 5.25024H10.4426C9.00302 5.25024 7.83603 6.2576 7.83603 7.50024V9.00024C7.83603 10.2429 9.00302 11.2502 10.4426 11.2502H13.918C15.3576 11.2502 16.5246 10.2429 16.5246 9.00024V7.50024C16.5246 6.2576 15.3576 5.25024 13.918 5.25024Z" stroke="#F0F0F1" stroke-width="2" stroke-linecap="round" stroke-linejoin="round"/>
<path d="M7.83603 16.5002C8.79574 16.5002 9.57374 15.8287 9.57374 15.0002C9.57374 14.1718 8.79574 13.5002 7.83603 13.5002C6.87632 13.5002 6.09833 14.1718 6.09833 15.0002C6.09833 15.8287 6.87632 16.5002 7.83603 16.5002Z" stroke="#F0F0F1" stroke-width="2" stroke-linecap="round" stroke-linejoin="round"/>
<path d="M15.6557 16.5002C16.6154 16.5002 17.3934 15.8287 17.3934 15.0002C17.3934 14.1718 16.6154 13.5002 15.6557 13.5002C14.696 13.5002 13.918 14.1718 13.918 15.0002C13.918 15.8287 14.696 16.5002 15.6557 16.5002Z" stroke="#F0F0F1" stroke-width="2" stroke-linecap="round" stroke-linejoin="round"/>
</g>
<defs>
<clipPath id="clip0_214_2348">
<rect width="20.8525" height="18" fill="white" transform="translate(0.0163574 0.750244)"/>
</clipPath>
</defs>
</svg>
